<svg xmlns="http://www.w3.org/2000/svg" viewBox="0 0 1200 630" width="1200" height="630"><defs><linearGradient id="bg" x1="0" y1="0" x2="1" y2="1"><stop offset="0" stop-color="#0B2A52"/><stop offset="1" stop-color="#1A5FAE"/></linearGradient></defs><rect width="1200" height="630" fill="url(#bg)"/><g transform="translate(930 315)" fill="none" stroke="#A7C8FF"><circle r="250" stroke-width="2" opacity="0.28"/><circle r="180" stroke-width="2" opacity="0.34"/><circle r="110" stroke-width="2" opacity="0.4"/><g stroke-width="2.4" stroke-linecap="round" opacity="0.5"><path d="M0 -250v34M0 250v-34M-250 0h34M250 0h-34"/></g></g><g transform="translate(930 315)"><path d="M0 -150 38 0 0 0Z" fill="#FFFFFF"/><path d="M0 -150 -38 0 0 0Z" fill="#E6EEFB"/><path d="M0 150 38 0 0 0Z" fill="#6C97D6"/><path d="M0 150 -38 0 0 0Z" fill="#A7C8FF"/><circle r="22" fill="#0B2A52" stroke="#FFFFFF" stroke-width="11"/></g><text x="90" y="150" font-family="'Space Grotesk','Helvetica Neue',Arial,sans-serif" font-size="34" font-weight="700" letter-spacing="7" fill="#FFCF8A">P O R T F O L I O</text><text x="86" y="300" font-family="'Space Grotesk','Helvetica Neue',Arial,sans-serif" font-size="118" font-weight="700" fill="#FFFFFF">fanfly.dev</text><text x="90" y="380" font-family="'Space Grotesk','Helvetica Neue',Arial,sans-serif" font-size="42" font-weight="600" fill="#A7C8FF">Making things fly, digitally and physically.</text><text x="90" y="540" font-family="'JetBrains Mono','SF Mono',Menlo,monospace" font-size="27" fill="#D5E3FF">Sling TSi build log&#160;&#160;&#160;/&#160;&#160;&#160;SquawkIt maintenance logbook</text></svg>
